<?xml version="1.0" encoding="utf-8"?>
<!-- Generator: Adobe Illustrator 16.0.0, SVG Export Plug-In . SVG Version: 6.00 Build 0)  -->
<!DOCTYPE svg PUBLIC "-//W3C//DTD SVG 1.1//EN" "http://www.w3.org/Graphics/SVG/1.1/DTD/svg11.dtd">
<svg version="1.1" id="Capa_1" xmlns="http://www.w3.org/2000/svg" xmlns:xlink="http://www.w3.org/1999/xlink" x="0px" y="0px"
	 width="22.336px" height="21.319px" viewBox="0 0 22.336 21.319" enable-background="new 0 0 22.336 21.319" xml:space="preserve">
<g>
	<g>
		<g>
			<path fill="#FFFFFF" d="M15.447,21.319H6.889C3.091,21.319,0,18.229,0,14.431V6.889C0,3.091,3.091,0,6.889,0h8.559
				c3.799,0,6.889,3.091,6.889,6.889v7.542C22.336,18.229,19.246,21.319,15.447,21.319z M6.889,1.53
				c-2.954,0-5.357,2.403-5.357,5.358v7.542c0,2.955,2.403,5.357,5.357,5.357h8.559c2.955,0,5.357-2.402,5.357-5.357V6.889
				c0-2.955-2.402-5.358-5.357-5.358H6.889z"/>
		</g>
		<g>
			<path fill="#FFFFFF" d="M11.168,16.792c-3.381,0-6.132-2.751-6.132-6.133c0-3.381,2.751-6.133,6.132-6.133
				s6.133,2.752,6.133,6.133C17.301,14.041,14.549,16.792,11.168,16.792z M11.168,6.058c-2.537,0-4.602,2.065-4.602,4.602
				c0,2.537,2.064,4.603,4.602,4.603s4.601-2.065,4.601-4.603C15.769,8.123,13.705,6.058,11.168,6.058z"/>
		</g>
		<g>
			<circle fill="#FFFFFF" cx="17.206" cy="4.716" r="1.272"/>
		</g>
	</g>
</g>
</svg>
