<?xml version="1.0" encoding="utf-8"?>
<!-- Generator: Adobe Illustrator 16.0.0, SVG Export Plug-In . SVG Version: 6.00 Build 0)  -->
<!DOCTYPE svg PUBLIC "-//W3C//DTD SVG 1.1//EN" "http://www.w3.org/Graphics/SVG/1.1/DTD/svg11.dtd">
<svg version="1.1" id="Capa_1" xmlns="http://www.w3.org/2000/svg" xmlns:xlink="http://www.w3.org/1999/xlink" x="0px" y="0px"
	 width="18.801px" height="15.242px" viewBox="0 0 18.801 15.242" enable-background="new 0 0 18.801 15.242" xml:space="preserve">
<g>
	<g>
		<polygon fill="#FFFFFF" points="18.158,0.244 18.158,0.244 18.158,0.244 		"/>
		<path fill="#FFFFFF" d="M17.42,2.157c-0.408,0.114-0.729,0.097-0.729,0.097l0.014-0.078c0.379-0.305,1.337-1.236,1.463-1.673
			c0.055-0.188-0.01-0.253-0.01-0.259l-1.224,0.519l-1.023,0.462l0,0C15.205,0.476,14.135,0,12.939,0
			c-2.129,0-3.854,1.507-3.854,3.368c0,0.34,0.051,0.959,0.158,1.27c0,0.098,0.004-0.099,0,0c-1.371-0.037-3.127-0.6-4.691-1.392
			C1.468,1.683,1.275,0.602,1.275,0.602C0.791,1.114,0.54,2.818,1.031,4.154c0.314,0.854,1.396,1.623,1.396,1.623l0,0
			c0,0-0.483,0.008-0.989-0.163C0.93,5.443,0.74,5.274,0.74,5.274C0.439,6.009,1.043,7.319,2.087,8.261
			c0.608,0.549,1.72,0.893,1.72,0.893L2.07,9.202c-0.098,1.688,3.539,2.689,3.539,2.689l0,0c-1.066,0.82-2.304,1.319-3.629,1.319
			c-0.687,0-1.351-0.103-1.98-0.291c1.75,1.442,4.002,2.438,6.449,2.311c6.494-0.342,10.159-5.923,10.334-11.404l0.008,0.01
			c0,0,0.305-0.151,0.955-0.802s1.055-1.411,1.055-1.411S17.828,2.046,17.42,2.157z"/>
		<path fill="#FFFFFF" d="M18.158,0.244C18.163,0.347,18.158,0.254,18.158,0.244L18.158,0.244z"/>
	</g>
</g>
</svg>
