<?xml version="1.0" encoding="utf-8"?>
<!-- Generator: Adobe Illustrator 16.0.0, SVG Export Plug-In . SVG Version: 6.00 Build 0)  -->
<!DOCTYPE svg PUBLIC "-//W3C//DTD SVG 1.1//EN" "http://www.w3.org/Graphics/SVG/1.1/DTD/svg11.dtd">
<svg version="1.1" id="Capa_1" xmlns="http://www.w3.org/2000/svg" xmlns:xlink="http://www.w3.org/1999/xlink" x="0px" y="0px"
	 width="173.131px" height="207.475px" viewBox="0 0 173.131 207.475" enable-background="new 0 0 173.131 207.475"
	 xml:space="preserve">
<g>
	<linearGradient id="SVGID_1_" gradientUnits="userSpaceOnUse" x1="22.2827" y1="103.7378" x2="132.4813" y2="103.7378">
		<stop  offset="0" style="stop-color:#FFFFFF;stop-opacity:0.7"/>
		<stop  offset="1" style="stop-color:#FFFFFF"/>
	</linearGradient>
	<path fill="url(#SVGID_1_)" d="M128.735,98.425L41.368,11.056c-2.935-2.934-7.692-2.934-10.625,0L14.684,27.114
		c-2.935,2.936-2.935,7.692,0,10.626l55.52,55.52c2.935,2.934,2.935,7.693,0,10.627L9.519,164.57c-2.934,2.936-2.934,7.69,0,10.626
		l21.224,21.222c2.934,2.936,7.691,2.936,10.625,0l87.368-87.367C131.669,106.117,131.669,101.359,128.735,98.425z"/>
	<linearGradient id="SVGID_2_" gradientUnits="userSpaceOnUse" x1="41.1948" y1="103.7378" x2="166.8125" y2="103.7378">
		<stop  offset="0" style="stop-color:#FFFFFF;stop-opacity:0.7"/>
		<stop  offset="1" style="stop-color:#FFFFFF"/>
	</linearGradient>
	<path fill="none" stroke="url(#SVGID_2_)" stroke-width="2" stroke-miterlimit="10" d="M163.612,98.425L76.243,11.056
		c-2.934-2.934-7.69-2.934-10.625,0L49.561,27.114c-2.935,2.936-2.935,7.692,0,10.626l55.52,55.52c2.934,2.934,2.934,7.693,0,10.627
		L44.396,164.57c-2.935,2.936-2.935,7.69,0,10.626l21.223,21.222c2.935,2.936,7.691,2.936,10.625,0l87.369-87.367
		C166.546,106.117,166.546,101.359,163.612,98.425z"/>
</g>
</svg>
